<?xml version="1.0" standalone="no"?>
<!DOCTYPE svg PUBLIC "-//W3C//DTD SVG 20010904//EN"
 "http://www.w3.org/TR/2001/REC-SVG-20010904/DTD/svg10.dtd">
<svg version="1.0" xmlns="http://www.w3.org/2000/svg"
 width="769.000000pt" height="395.000000pt" viewBox="0 0 769.000000 395.000000"
 preserveAspectRatio="xMidYMid meet">

<g transform="translate(0.000000,395.000000) scale(0.100000,-0.100000)"
fill="#000000" stroke="none">
<path d="M2315 3245 c-27 -26 -34 -80 -15 -116 9 -15 22 -19 70 -19 100 0 104
-15 65 -217 -13 -71 -51 -276 -85 -457 l-60 -328 -38 -38 c-103 -106 -211
-409 -272 -763 -40 -234 -22 -359 56 -392 45 -19 60 -18 104 3 94 46 146 201
244 732 14 74 78 410 142 745 128 665 137 740 98 805 -28 49 -85 69 -197 69
-80 1 -90 -1 -112 -24z m-71 -1397 c-10 -62 -48 -266 -69 -375 -56 -280 -79
-363 -100 -363 -32 0 -28 45 25 309 41 200 78 332 121 424 15 33 28 35 23 5z"/>
<path d="M2910 3244 c-63 -35 -104 -94 -139 -199 -38 -115 -262 -1288 -269
-1405 -6 -111 9 -164 58 -211 52 -50 115 -67 184 -49 62 16 79 25 127 68 41
37 89 120 113 197 18 57 216 1093 216 1131 0 18 5 24 21 24 56 0 118 77 136
169 18 96 17 99 -23 58 -34 -34 -78 -56 -90 -44 -3 2 0 35 7 72 29 169 -40
272 -123 183 -27 -29 -31 -30 -39 -15 -14 24 -63 47 -101 47 -18 0 -53 -12
-78 -26z m270 -174 c0 -51 -6 -60 -28 -38 -22 22 -12 88 14 88 10 0 14 -14 14
-50z m-156 -14 c18 -24 21 -41 20 -124 -1 -79 -21 -201 -108 -656 -101 -525
-128 -636 -155 -636 -5 0 -16 -3 -24 -6 -27 -10 -57 32 -57 78 0 44 3 63 85
498 29 157 75 396 100 533 53 283 58 303 81 329 21 23 32 20 58 -16z"/>
<path d="M3335 3245 c-20 -19 -25 -34 -25 -77 0 -62 7 -75 40 -79 14 -3 30
-14 37 -29 13 -28 21 16 -192 -1108 -58 -303 -105 -559 -105 -567 0 -12 17
-15 90 -15 50 0 90 3 90 7 0 6 143 781 161 871 l10 52 65 0 c73 0 73 0 54
-101 -97 -495 -121 -638 -115 -683 8 -66 28 -111 58 -131 23 -15 28 -15 69 5
48 22 84 56 142 133 40 54 43 47 21 -53 -23 -106 -28 -100 74 -100 l90 0 10
53 c5 28 49 259 96 512 48 253 105 557 127 675 23 121 53 247 69 290 44 114
113 209 136 186 18 -18 20 -9 -198 -1154 -41 -220 -59 -337 -59 -393 0 -90 17
-138 54 -158 45 -24 142 43 223 154 27 37 29 23 9 -80 -8 -38 -12 -73 -9 -77
2 -5 42 -8 88 -8 79 0 85 1 90 23 3 12 39 200 80 417 40 217 108 577 150 800
102 535 102 595 2 641 -48 21 -134 25 -159 5 -23 -17 -38 -59 -38 -105 0 -42
10 -55 52 -65 18 -4 30 -15 34 -31 3 -14 -10 -111 -30 -218 -138 -733 -176
-928 -191 -972 -28 -80 -71 -160 -110 -201 -34 -36 -38 -37 -50 -21 -10 14
-10 31 1 90 8 39 30 155 49 257 19 102 67 352 106 555 81 419 95 561 64 640
-20 54 -60 85 -110 85 -55 0 -92 -25 -135 -91 l-38 -59 -7 39 c-11 67 -79 111
-170 111 -59 0 -86 -24 -92 -82 -8 -69 2 -96 34 -100 48 -5 54 -37 33 -158
-25 -144 -145 -777 -176 -930 -28 -138 -66 -239 -116 -306 -30 -40 -71 -65
-84 -51 -3 3 47 279 111 614 64 334 131 691 150 793 19 102 37 193 39 203 4
15 -5 17 -84 17 l-87 0 -42 -217 c-100 -523 -116 -598 -126 -605 -15 -11 -113
-9 -120 2 -3 6 19 142 51 303 77 398 73 458 -35 503 -18 8 -56 14 -83 14 -39
0 -54 -5 -73 -25z"/>
<path d="M5162 3257 c-50 -16 -124 -88 -159 -154 -46 -87 -72 -182 -84 -314
-16 -166 1 -274 56 -359 16 -25 15 -26 -34 -77 -122 -126 -208 -394 -218 -678
-6 -160 3 -208 47 -259 17 -18 30 -44 30 -57 0 -33 203 -311 238 -326 18 -7
33 -8 46 -1 22 12 276 197 294 214 26 27 11 62 -88 198 -55 75 -100 142 -100
149 1 7 6 22 14 35 l12 23 26 -38 c14 -21 41 -58 59 -83 l32 -45 -49 45 c-45
41 -19 12 137 -156 20 -21 51 -50 68 -64 19 -16 31 -36 33 -56 2 -20 41 -83
113 -182 140 -194 122 -191 326 -44 94 68 151 115 155 130 4 15 -2 36 -22 65
-46 69 -196 271 -208 279 -26 17 -54 2 -196 -102 -83 -60 -154 -110 -159 -110
-4 0 -15 8 -24 18 -15 16 -8 23 115 112 180 130 188 137 188 169 0 18 -33 72
-100 166 -116 162 -132 177 -168 168 -14 -3 -84 -49 -155 -100 -71 -52 -130
-93 -133 -91 -2 3 1 19 6 38 9 33 -4 110 -20 110 -3 0 -14 -24 -23 -54 -44
-137 -182 -286 -267 -286 -51 0 -65 31 -64 139 2 222 96 495 213 617 38 40 50
60 55 97 6 41 4 50 -23 87 -41 57 -55 132 -48 255 10 160 61 336 103 352 9 3
23 -2 32 -11 14 -14 15 -25 5 -93 -6 -43 -10 -80 -8 -82 2 -2 40 27 85 64 l80
67 0 72 c0 97 -14 134 -56 152 -39 16 -114 17 -162 1z m394 -1542 c24 -10 39
-26 50 -50 13 -32 13 -38 -6 -75 -24 -46 -55 -62 -102 -53 -44 9 -68 33 -75
76 -7 45 15 83 60 102 40 18 32 18 73 0z m-436 -294 c0 -9 -30 -25 -43 -23
-14 4 -47 -63 -41 -83 8 -28 42 -55 69 -55 13 0 38 14 55 31 17 17 34 29 37
25 12 -12 -23 -59 -54 -72 -82 -35 -152 31 -127 121 10 36 104 87 104 56z
m675 -143 c-29 -22 -30 -27 -12 -52 13 -18 15 -18 41 -1 36 24 46 11 13 -15
-25 -20 -26 -22 -11 -46 l16 -24 30 21 c36 26 52 15 18 -12 -57 -45 -56 -45
-110 28 -27 38 -50 71 -50 74 0 3 17 18 37 32 42 30 67 26 28 -5z"/>
<path d="M5463 1673 c-34 -51 -4 -113 54 -113 29 0 73 41 73 68 0 11 -11 31
-25 46 -31 33 -80 33 -102 -1z"/>
<path d="M5760 1895 c13 -14 26 -25 28 -25 3 0 -5 11 -18 25 -13 14 -26 25
-28 25 -3 0 5 -11 18 -25z"/>
<path d="M5870 1793 c0 -5 12 -20 28 -34 l27 -24 -25 30 c-14 17 -26 32 -27
34 -2 2 -3 0 -3 -6z"/>
<path d="M5274 1099 c-169 -122 -174 -127 -174 -153 0 -23 184 -288 221 -318
12 -10 31 -18 43 -18 30 0 308 204 325 239 13 27 11 32 -104 189 -102 141
-121 162 -145 162 -19 0 -71 -31 -166 -101z m175 -113 c39 -20 53 -73 32 -114
-18 -35 -81 -86 -92 -75 -18 21 -89 123 -91 131 -4 16 74 71 100 72 13 0 35
-6 51 -14z"/>
<path d="M5385 972 c-11 -4 -31 -15 -44 -24 l-24 -17 39 -53 c21 -29 39 -54
40 -56 6 -9 52 31 62 53 14 30 -1 81 -28 95 -10 6 -20 10 -22 9 -2 -1 -12 -4
-23 -7z"/>
</g>
</svg>
